<svg id="Layer_1" data-name="Layer 1" xmlns="http://www.w3.org/2000/svg" xmlns:xlink="http://www.w3.org/1999/xlink" viewBox="0 0 295.47 342.43">
  <defs>
    <linearGradient id="linear-gradient" x1="880.28" y1="825.32" x2="1171.05" y2="825.32" gradientTransform="translate(56.55 1362.51) rotate(-65)" gradientUnits="userSpaceOnUse">
      <stop offset="0" stop-color="#9abded"/>
      <stop offset="0" stop-color="#4273c5"/>
      <stop offset="0" stop-color="#002d5b"/>
    </linearGradient>
    <linearGradient id="linear-gradient-2" x1="880.28" y1="758.59" x2="1171.05" y2="758.59" gradientTransform="translate(56.55 1362.51) rotate(-65)" gradientUnits="userSpaceOnUse">
      <stop offset="0" stop-color="#ee9994"/>
      <stop offset="0.38" stop-color="#ec9894"/>
      <stop offset="0.51" stop-color="#e59592"/>
      <stop offset="0.61" stop-color="#da908f"/>
      <stop offset="0.69" stop-color="#c9888b"/>
      <stop offset="0.76" stop-color="#b37e86"/>
      <stop offset="0.82" stop-color="#97727f"/>
      <stop offset="0.87" stop-color="#776377"/>
      <stop offset="0.92" stop-color="#51526e"/>
      <stop offset="0.96" stop-color="#283f65"/>
      <stop offset="1" stop-color="#002d5b"/>
    </linearGradient>
    <linearGradient id="linear-gradient-3" x1="880.28" y1="904.88" x2="1171.05" y2="904.88" gradientTransform="translate(56.55 1362.51) rotate(-65)" gradientUnits="userSpaceOnUse">
      <stop offset="0" stop-color="#a0c2ef"/>
      <stop offset="0" stop-color="#4273c5"/>
      <stop offset="0" stop-color="#002d5b"/>
    </linearGradient>
    <linearGradient id="linear-gradient-4" x1="880.28" y1="838.15" x2="1171.05" y2="838.15" xlink:href="#linear-gradient-2"/>
    <linearGradient id="linear-gradient-5" x1="880.28" y1="984.43" x2="1171.05" y2="984.43" xlink:href="#linear-gradient-3"/>
    <linearGradient id="linear-gradient-6" x1="880.28" y1="917.7" x2="1171.05" y2="917.7" xlink:href="#linear-gradient-2"/>
  </defs>
  <title>logo_icon</title>
  <g id="boxes">
    <g id="box1">
      <path d="M1157.86,904.79c1.64.76,3.89.19,6.38-1.89l110.13-92.42c5-4.16,9-12.88,9-19.36V647.35c0-3.24-1-5.33-2.65-6.09l-24-11.21c1.64.76,2.66,2.86,2.66,6.1V779.92c0,6.48-4.06,15.19-9,19.36L1140.2,891.69c-2.48,2.09-4.74,2.66-6.37,1.89Z" transform="translate(-1132.13 -630.05)" style="fill: url(#linear-gradient)"/>
      <path d="M1281.71,641.7c-1.64-.76-3.9-.19-6.38,1.89L1165.2,736c-5,4.17-9,12.88-9,19.36V899.14c0,3.24,1,5.33,2.65,6.1l-24-11.21c-1.64-.76-2.66-2.86-2.66-6.1V744.16c0-6.48,4.06-15.19,9-19.36l110.13-92.41c2.48-2.09,4.74-2.66,6.37-1.89Z" transform="translate(-1132.13 -630.05)" style="fill: url(#linear-gradient-2)"/>
    </g>
    <g id="box2">
      <path d="M1230,938.41c1.64.76,3.9.2,6.38-1.89l110.13-92.41c5-4.17,9-12.88,9-19.37V681c0-3.24-1-5.34-2.65-6.1l-24-11.21c1.63.76,2.65,2.86,2.65,6.1V813.54c0,6.48-4.06,15.19-9,19.36L1212.3,925.31c-2.48,2.09-4.74,2.66-6.37,1.89Z" transform="translate(-1132.13 -630.05)" style="fill: url(#linear-gradient-3)"/>
      <path d="M1353.81,675.32c-1.64-.76-3.9-.19-6.38,1.89L1237.3,769.63c-5,4.17-9,12.88-9,19.36V932.76c0,3.24,1,5.33,2.65,6.1l-24-11.21c-1.64-.76-2.66-2.86-2.65-6.1V777.78c0-6.48,4.06-15.19,9-19.36L1323.4,666c2.48-2.09,4.74-2.66,6.37-1.89Z" transform="translate(-1132.13 -630.05)" style="fill: url(#linear-gradient-4)"/>
    </g>
    <g id="box3">
      <path d="M1302.06,972c1.64.76,3.9.2,6.38-1.89l110.13-92.41c5-4.17,9-12.88,9-19.36V714.6c0-3.24-1-5.34-2.65-6.1l-24-11.21c1.63.77,2.65,2.86,2.65,6.1V847.16c0,6.48-4.06,15.19-9,19.36l-110.12,92.42c-2.49,2.08-4.74,2.65-6.38,1.88Z" transform="translate(-1132.13 -630.05)" style="fill: url(#linear-gradient-5)"/>
      <path d="M1425.91,709c-1.64-.77-3.89-.2-6.38,1.88L1309.4,803.25c-5,4.17-9,12.88-9,19.36V966.38c0,3.24,1,5.34,2.65,6.1l-24-11.21c-1.64-.76-2.65-2.86-2.65-6.1V811.41c0-6.49,4.06-15.2,9-19.37l110.13-92.41c2.48-2.09,4.74-2.65,6.38-1.89Z" transform="translate(-1132.13 -630.05)" style="fill: url(#linear-gradient-6)"/>
    </g>
  </g>
</svg>
